<?xml version="1.0" encoding="utf-8"?>
<!-- Generator: Adobe Illustrator 16.0.0, SVG Export Plug-In . SVG Version: 6.00 Build 0)  -->
<!DOCTYPE svg PUBLIC "-//W3C//DTD SVG 1.1//EN" "http://www.w3.org/Graphics/SVG/1.1/DTD/svg11.dtd">
<svg version="1.1" id="Layer_1" xmlns="http://www.w3.org/2000/svg" xmlns:xlink="http://www.w3.org/1999/xlink" x="0px" y="0px"
	 width="267.118px" height="107.406px" viewBox="0 0 267.118 107.406" enable-background="new 0 0 267.118 107.406"
	 xml:space="preserve">
<g>
	<g>
		<linearGradient id="SVGID_1_" gradientUnits="userSpaceOnUse" x1="45.9053" y1="3.2617" x2="61.4785" y2="69.8949">
			<stop  offset="0" style="stop-color:#113458"/>
			<stop  offset="1" style="stop-color:#135985"/>
		</linearGradient>
		<polygon fill="url(#SVGID_1_)" points="27.613,1.948 53.434,77.949 81.347,77.949 55.536,1.948 		"/>
		<linearGradient id="SVGID_2_" gradientUnits="userSpaceOnUse" x1="25.7793" y1="67.6348" x2="81.3467" y2="67.6348">
			<stop  offset="0" style="stop-color:#70C5A4"/>
			<stop  offset="1" style="stop-color:#28A99D"/>
		</linearGradient>
		<path opacity="0.95" fill="url(#SVGID_2_)" d="M25.779,57.348c0,0,18.199,0.236,27.801,20.602h27.767
			c0,0-7.529-21.522-24.381-20.602H25.779z"/>
		<linearGradient id="SVGID_3_" gradientUnits="userSpaceOnUse" x1="1.2041" y1="67.6484" x2="53.3193" y2="67.6484">
			<stop  offset="0" style="stop-color:#13375B"/>
			<stop  offset="1" style="stop-color:#135985"/>
		</linearGradient>
		<path opacity="0.95" fill="url(#SVGID_3_)" d="M29.709,77.949c0,0,5.464-16.856,23.61-20.602H27.271
			c0,0-15.83,0.819-26.066,20.602H29.709z"/>
		<linearGradient id="SVGID_4_" gradientUnits="userSpaceOnUse" x1="39.6738" y1="1.3428" x2="18.1685" y2="74.0084">
			<stop  offset="0" style="stop-color:#70C5A4"/>
			<stop  offset="1" style="stop-color:#28A99D"/>
		</linearGradient>
		<polygon opacity="0.95" fill="url(#SVGID_4_)" points="55.355,1.948 27.628,1.948 1.14,77.949 29.722,77.949 		"/>
	</g>
	<g>
		<path fill="#113458" d="M112.694,23.594H99.569L94.566,36.67h-1.882l14.76-35.662h1.04l15.156,35.662h-5.597
			c-1.883-4.606-2.675-6.538-2.675-6.538L112.694,23.594z M112.249,22.405l-6.241-14.958l-6.092,14.958H112.249z"/>
		<path fill="#113458" d="M130.529,36.67h-3.22v-6.241V12.45V6.11h2.625c0,0.049,0.05,0.049,0.099,0h0.496v24.318V36.67z"/>
		<path fill="#113458" d="M135.632,11.112c-0.445-0.445-0.644-0.99-0.644-1.684c0-0.595,0.198-1.14,0.644-1.635
			c0.495-0.446,0.99-0.693,1.635-0.693c0.644,0,1.188,0.247,1.635,0.693c0.445,0.495,0.693,1.04,0.693,1.635
			c0,0.693-0.248,1.238-0.693,1.684c-0.446,0.446-0.991,0.693-1.635,0.693C136.622,11.806,136.127,11.559,135.632,11.112z
			 M138.356,17.749h0.495v9.461v3.219v6.241h-3.17v-6.241v-5.497c0-0.1,0-0.198,0-0.298v-6.885H138.356z"/>
		<path fill="#113458" d="M177.438,37.562h-5.003l-4.012-5.448c-0.198,0.247-0.347,0.347-0.545,0.545l-0.445,0.495
			c-2.725,2.625-5.795,4.26-8.768,4.26c-1.188,0-2.08-0.198-3.219-0.645c-1.189-0.445-2.229-1.089-3.121-1.932
			c-0.892-0.842-1.634-1.832-2.229-2.972c-0.545-1.188-0.792-2.427-0.743-3.813c0-2.13,0.545-3.913,1.685-5.35
			c1.139-1.437,3.07-3.269,6.389-5.448c-1.98-2.773-3.565-5.25-3.565-7.479c0-1.733,0.693-3.27,2.03-4.656
			c1.338-1.387,3.021-2.08,5.102-2.08c1.833,0,3.517,0.445,4.903,1.535s1.932,2.427,1.932,4.062c0,2.576-1.585,5.102-6.438,7.578
			l9.015,11.888l4.953-5.35h1.684l0.05,0.05l-5.943,6.389L177.438,37.562z M167.68,31.023l-9.51-12.729
			c-1.733,1.09-2.823,2.328-3.764,3.765c-0.991,1.486-1.437,2.873-1.437,4.21c0,2.08,0.445,4.111,2.08,5.943
			c1.684,1.833,3.665,2.675,5.795,2.675c2.08,0,4.408-1.238,6.241-3.22L167.68,31.023z M157.08,8.487
			c0,1.635,1.585,3.913,3.616,6.736c3.368-1.981,4.458-4.111,4.458-6.39c0-0.693-0.1-1.288-0.298-1.833
			c-0.148-0.594-0.445-1.089-0.792-1.485c-0.396-0.396-0.793-0.693-1.338-0.941c-0.495-0.198-1.04-0.297-1.634-0.297
			c-1.238,0-2.229,0.396-2.923,1.188C157.427,6.259,157.08,7.249,157.08,8.487z"/>
		<path fill="#113458" d="M112.694,65.14H99.569l-5.003,13.076h-1.882l14.76-35.661h1.04l15.156,35.661h-5.597
			c-1.883-4.606-2.675-6.538-2.675-6.538L112.694,65.14z M112.249,63.951l-6.241-14.958l-6.092,14.958H112.249z"/>
		<path fill="#113458" d="M126.27,76.334c0,0.049-0.05,0.049-0.099,0.099v-0.05L126.27,76.334z M136.721,74.848
			c-0.298,1.535-1.04,2.675-2.229,3.418c-1.188,0.742-2.525,0.99-4.062,0.693c-1.585-0.347-2.872-1.288-3.863-2.823l0.793-0.495
			c0.693,1.287,1.783,2.08,3.22,2.377c1.089,0.198,1.932,0.05,2.575-0.495c0.693-0.545,1.09-1.238,1.238-1.981
			c0.198-0.94,0.05-1.733-0.396-2.427c-0.445-0.693-1.485-1.635-2.972-2.773c-1.585-1.189-2.675-2.328-3.269-3.318
			c-0.595-0.941-0.793-2.031-0.545-3.27c0.198-1.139,0.842-2.13,1.882-3.021c0.99-0.892,2.278-1.188,3.765-0.892
			c1.436,0.298,2.525,1.09,3.269,2.378l-0.793,0.545c-0.644-1.09-1.485-1.733-2.625-1.932c-0.842-0.198-1.585-0.05-2.179,0.347
			c-0.645,0.445-1.04,0.99-1.188,1.684c-0.149,0.793,0.049,1.486,0.495,2.18c0.495,0.644,1.437,1.535,2.872,2.575
			c2.18,1.535,3.468,2.923,3.814,4.062C136.819,72.817,136.919,73.906,136.721,74.848z"/>
		<path fill="#113458" d="M140.091,76.334c0,0.049-0.05,0.049-0.099,0.099v-0.05L140.091,76.334z M150.542,74.848
			c-0.298,1.535-1.04,2.675-2.229,3.418c-1.188,0.742-2.525,0.99-4.062,0.693c-1.585-0.347-2.872-1.288-3.863-2.823l0.793-0.495
			c0.693,1.287,1.783,2.08,3.219,2.377c1.09,0.198,1.933,0.05,2.576-0.495c0.693-0.545,1.09-1.238,1.238-1.981
			c0.198-0.94,0.05-1.733-0.396-2.427c-0.445-0.693-1.485-1.635-2.972-2.773c-1.585-1.189-2.675-2.328-3.269-3.318
			c-0.595-0.941-0.793-2.031-0.545-3.27c0.197-1.139,0.842-2.13,1.882-3.021c0.99-0.892,2.278-1.188,3.765-0.892
			c1.436,0.298,2.525,1.09,3.269,2.378l-0.792,0.545c-0.645-1.09-1.486-1.733-2.626-1.932c-0.842-0.198-1.585-0.05-2.179,0.347
			c-0.645,0.445-1.04,0.99-1.188,1.684c-0.149,0.793,0.049,1.486,0.495,2.18c0.495,0.644,1.437,1.535,2.872,2.575
			c2.18,1.535,3.468,2.923,3.814,4.062C150.641,72.817,150.739,73.906,150.542,74.848z"/>
		<path fill="#113458" d="M156.586,62.515c1.684-1.832,3.813-2.724,6.34-2.724c2.525,0,4.655,0.892,6.34,2.724
			c1.733,1.882,2.575,4.111,2.575,6.835c0,3.021-0.842,5.35-2.575,7.083c-1.783,1.733-3.863,2.575-6.34,2.575
			s-4.557-0.891-6.34-2.625c-1.733-1.733-2.576-4.062-2.576-7.033C154.01,66.626,154.853,64.348,156.586,62.515z M158.864,76.086
			c0.941,1.288,2.328,1.932,4.062,1.932c1.783,0,3.17-0.644,4.11-1.932c0.941-1.238,1.635-3.467,1.635-6.637
			c0-3.121-0.693-5.35-1.635-6.687c-0.94-1.338-2.327-1.981-4.11-1.981s-3.17,0.644-4.111,1.981
			c-0.941,1.337-1.635,3.565-1.635,6.687C157.18,72.619,157.873,74.848,158.864,76.086z"/>
		<path fill="#113458" d="M188.387,76.779l0.645,0.645c-1.288,1.04-3.021,1.584-5.201,1.584c-2.575,0-4.705-0.891-6.438-2.575
			c-1.685-1.733-2.576-4.012-2.576-6.835c0-2.873,0.892-5.151,2.576-6.885c1.733-1.684,3.863-2.575,6.438-2.575
			c2.18,0,3.913,0.545,5.201,1.585l-0.645,0.644c-0.94-0.693-2.13-1.09-3.615-1.09c-2.13,0-3.715,0.793-4.755,2.378
			c-0.991,1.485-1.585,3.417-1.585,5.943c0,2.477,0.594,4.408,1.585,5.894c1.04,1.585,2.625,2.378,4.755,2.378
			C186.257,77.869,187.446,77.522,188.387,76.779z"/>
		<path fill="#113458" d="M192.5,52.658c-0.445-0.445-0.644-0.99-0.644-1.684c0-0.595,0.198-1.14,0.644-1.635
			c0.495-0.445,0.99-0.693,1.635-0.693c0.644,0,1.188,0.248,1.634,0.693c0.446,0.495,0.694,1.04,0.694,1.635
			c0,0.693-0.248,1.238-0.694,1.684c-0.445,0.446-0.99,0.693-1.634,0.693C193.49,53.352,192.995,53.104,192.5,52.658z
			 M195.225,59.295h0.495v9.461v3.219v6.241h-3.17v-6.241v-5.497c0-0.1,0-0.198,0-0.298v-6.885H195.225z"/>
		<path fill="#113458" d="M213.996,65.883v7.231v5.597c0,0-0.05,0-3.12,0v-0.743v-2.377c-1.486,1.04-2.823,1.833-4.012,2.328
			c-1.189,0.545-2.278,0.792-3.22,0.792c-2.229,0-4.062-2.675-4.062-4.21s0.347-2.427,1.783-3.566
			c1.485-1.139,3.517-2.229,6.092-3.269l3.418-1.387v-0.892c0-1.238-0.1-2.13-0.248-2.675c-0.198-0.545-0.594-1.04-1.287-1.486
			c-0.645-0.445-1.536-0.644-2.626-0.644c-1.733,0-2.823,0.347-3.764,0.991c-0.347-0.348-0.347-0.348-0.743-0.694
			c1.188-0.742,2.773-1.287,4.953-1.287c1.882,0,3.318,0.297,4.309,0.892c1.041,0.594,1.734,1.238,2.031,1.98
			C213.848,63.208,213.996,64.348,213.996,65.883z M210.876,67.319l-2.427,0.941c-3.765,1.535-5.646,3.467-5.646,5.795
			c0,0.94,0.247,1.684,0.742,2.229c0.496,0.545,1.09,0.842,1.883,0.842c0.693,0,1.485-0.247,2.377-0.693
			c0.892-0.445,1.932-1.139,3.071-2.03V67.319z"/>
		<path fill="#113458" d="M220.735,60.484v-5.548h3.12v5.548h5.35v0.99h-5.35v10.748c0,1.684,0.05,2.773,0.198,3.368
			c0.148,0.545,0.445,1.04,0.941,1.387c0.445,0.347,0.94,0.495,1.485,0.495c1.04,0,1.981-0.594,2.725-1.783l0.693,0.446
			c-0.446,0.94-1.09,1.635-1.981,2.13s-1.783,0.742-2.675,0.742c-1.04,0-1.932-0.297-2.724-0.94
			c-0.793-0.595-1.288-1.338-1.486-2.13c-0.198-0.842-0.297-2.278-0.297-4.358V61.475h-2.576v-0.99H220.735z"/>
		<path fill="#113458" d="M247.681,75.987c-0.495,0.693-1.139,1.287-1.932,1.783c-1.337,0.792-2.872,1.237-4.457,1.237
			c-1.536,0-2.923-0.396-4.31-1.139c-1.337-0.793-2.427-1.833-3.269-3.22s-1.288-3.07-1.288-5.052c0-2.823,0.842-5.151,2.477-7.033
			c1.635-1.833,3.715-2.773,6.191-2.773c2.328,0,4.16,0.693,5.398,2.13c1.288,1.387,1.783,2.872,1.783,4.605h-12.135
			c-0.05,0.843-0.099,1.486-0.099,1.883c0,3.12,0.495,5.497,1.485,7.082c0.941,1.536,2.427,2.328,4.358,2.328
			c2.229,0,3.913-0.842,5.053-2.575L247.681,75.987z M236.19,65.635h9.46c0-0.99-0.842-4.903-4.705-4.903
			C238.271,60.731,236.735,62.366,236.19,65.635z"/>
		<path fill="#113458" d="M250.754,76.334c0,0.049-0.05,0.049-0.099,0.099v-0.05L250.754,76.334z M261.205,74.848
			c-0.298,1.535-1.04,2.675-2.229,3.418c-1.188,0.742-2.525,0.99-4.062,0.693c-1.585-0.347-2.872-1.288-3.863-2.823l0.793-0.495
			c0.693,1.287,1.783,2.08,3.22,2.377c1.089,0.198,1.932,0.05,2.575-0.495c0.693-0.545,1.09-1.238,1.238-1.981
			c0.198-0.94,0.05-1.733-0.396-2.427c-0.445-0.693-1.485-1.635-2.972-2.773c-1.585-1.189-2.675-2.328-3.269-3.318
			c-0.595-0.941-0.793-2.031-0.545-3.27c0.198-1.139,0.842-2.13,1.882-3.021c0.99-0.892,2.278-1.188,3.765-0.892
			c1.436,0.298,2.525,1.09,3.269,2.378l-0.793,0.545c-0.644-1.09-1.485-1.733-2.625-1.932c-0.842-0.198-1.585-0.05-2.179,0.347
			c-0.645,0.445-1.04,0.99-1.188,1.684c-0.149,0.793,0.049,1.486,0.495,2.18c0.495,0.644,1.437,1.535,2.872,2.575
			c2.18,1.535,3.468,2.923,3.814,4.062C261.304,72.817,261.403,73.906,261.205,74.848z"/>
	</g>
</g>
<g>
	<g>
		<path fill="#4D4D4F" d="M180.076,99.684l1.037-0.622c0.729,1.343,1.573,2.016,2.528,2.016c0.409,0,0.794-0.096,1.153-0.286
			c0.359-0.191,0.634-0.446,0.821-0.768c0.188-0.32,0.282-0.66,0.282-1.02c0-0.41-0.139-0.811-0.415-1.202
			c-0.381-0.543-1.078-1.195-2.09-1.958c-1.017-0.769-1.65-1.324-1.898-1.666c-0.432-0.575-0.646-1.197-0.646-1.866
			c0-0.531,0.127-1.015,0.38-1.452c0.255-0.436,0.613-0.779,1.075-1.031c0.461-0.252,0.962-0.377,1.505-0.377
			c0.574,0,1.112,0.142,1.612,0.427c0.501,0.284,1.03,0.808,1.589,1.57l-0.996,0.755c-0.458-0.608-0.85-1.009-1.173-1.202
			s-0.676-0.29-1.058-0.29c-0.492,0-0.895,0.148-1.206,0.448c-0.313,0.298-0.469,0.665-0.469,1.103c0,0.265,0.055,0.522,0.166,0.771
			c0.109,0.249,0.313,0.521,0.605,0.813c0.16,0.155,0.686,0.562,1.575,1.219c1.056,0.779,1.78,1.474,2.173,2.082
			c0.392,0.608,0.588,1.218,0.588,1.832c0,0.885-0.335,1.653-1.008,2.305c-0.671,0.652-1.487,0.979-2.449,0.979
			c-0.741,0-1.413-0.197-2.016-0.592C181.141,101.274,180.585,100.612,180.076,99.684z"/>
		<path fill="#4D4D4F" d="M189.837,89.219c0.265,0,0.49,0.094,0.678,0.281c0.187,0.188,0.28,0.415,0.28,0.68
			c0,0.26-0.094,0.483-0.28,0.672c-0.188,0.188-0.413,0.282-0.678,0.282c-0.258,0-0.482-0.095-0.669-0.282
			c-0.188-0.188-0.28-0.412-0.28-0.672c0-0.265,0.093-0.492,0.28-0.68C189.354,89.313,189.579,89.219,189.837,89.219z
			 M189.261,92.933h1.161v9.023h-1.161V92.933z"/>
		<path fill="#4D4D4F" d="M192.665,92.933h1.161v1.618c0.464-0.619,0.979-1.083,1.543-1.39c0.563-0.307,1.177-0.461,1.841-0.461
			c0.675,0,1.272,0.173,1.795,0.515c0.522,0.343,0.908,0.805,1.157,1.386c0.248,0.58,0.372,1.484,0.372,2.711v4.645h-1.16v-4.304
			c0-1.04-0.043-1.734-0.129-2.082c-0.135-0.597-0.394-1.046-0.774-1.348c-0.382-0.301-0.88-0.452-1.492-0.452
			c-0.702,0-1.333,0.232-1.888,0.696c-0.556,0.465-0.922,1.04-1.099,1.726c-0.11,0.448-0.166,1.266-0.166,2.454v3.31h-1.161V92.933z
			"/>
		<path fill="#4D4D4F" d="M211.609,94.808l-0.92,0.572c-0.796-1.056-1.88-1.584-3.256-1.584c-1.099,0-2.011,0.354-2.737,1.061
			c-0.726,0.707-1.089,1.565-1.089,2.575c0,0.657,0.168,1.276,0.501,1.856c0.334,0.58,0.793,1.029,1.376,1.35
			c0.581,0.32,1.235,0.48,1.958,0.48c1.325,0,2.407-0.527,3.247-1.584l0.92,0.605c-0.431,0.649-1.01,1.153-1.737,1.512
			c-0.727,0.358-1.555,0.536-2.483,0.536c-1.426,0-2.608-0.453-3.549-1.359s-1.41-2.01-1.41-3.309c0-0.873,0.22-1.685,0.66-2.434
			c0.438-0.75,1.042-1.334,1.812-1.755c0.768-0.42,1.628-0.631,2.578-0.631c0.599,0,1.175,0.093,1.73,0.274
			c0.556,0.183,1.026,0.421,1.414,0.713C211.01,93.98,211.339,94.354,211.609,94.808z"/>
		<path fill="#4D4D4F" d="M221.268,98.963l0.979,0.513c-0.321,0.631-0.691,1.14-1.112,1.526c-0.42,0.387-0.894,0.682-1.42,0.883
			c-0.525,0.203-1.12,0.303-1.784,0.303c-1.472,0-2.623-0.481-3.453-1.446s-1.244-2.055-1.244-3.271c0-1.146,0.351-2.165,1.054-3.06
			c0.891-1.14,2.083-1.71,3.577-1.71c1.539,0,2.767,0.584,3.685,1.751c0.654,0.823,0.985,1.852,0.997,3.084h-8.119
			c0.022,1.049,0.357,1.908,1.005,2.578s1.447,1.005,2.399,1.005c0.46,0,0.906-0.08,1.341-0.239c0.435-0.16,0.804-0.372,1.108-0.636
			C220.584,99.978,220.914,99.551,221.268,98.963z M221.268,96.532c-0.154-0.619-0.38-1.114-0.677-1.484s-0.688-0.669-1.175-0.896
			s-0.999-0.34-1.536-0.34c-0.886,0-1.646,0.284-2.283,0.854c-0.466,0.415-0.817,1.037-1.055,1.866H221.268z"/>
		<path fill="#4D4D4F" d="M230.92,89.757h2.397v12.199h-1.211V90.951h-1.916L230.92,89.757z"/>
		<path fill="#4D4D4F" d="M240.279,102.262l-1.004-0.646l3.301-4.994c-0.442,0.146-0.857,0.218-1.245,0.218
			c-0.97,0-1.792-0.35-2.469-1.049c-0.676-0.699-1.013-1.56-1.013-2.583c0-0.702,0.163-1.336,0.489-1.898
			c0.326-0.564,0.789-1.016,1.389-1.353s1.243-0.505,1.928-0.505c0.675,0,1.299,0.162,1.87,0.488
			c0.573,0.326,1.022,0.782,1.349,1.369c0.326,0.586,0.488,1.21,0.488,1.873c0,0.503-0.101,1.029-0.303,1.58
			s-0.562,1.212-1.082,1.986L240.279,102.262z M241.611,95.77c0.716,0,1.321-0.251,1.819-0.751c0.497-0.5,0.746-1.104,0.746-1.812
			c0-0.708-0.25-1.313-0.751-1.813c-0.5-0.5-1.106-0.75-1.819-0.75c-0.708,0-1.312,0.25-1.813,0.75s-0.751,1.104-0.751,1.813
			c0,0.707,0.251,1.312,0.753,1.812S240.903,95.77,241.611,95.77z"/>
		<path fill="#4D4D4F" d="M247.481,89.757h7.737l-6.526,12.505l-1.011-0.517l5.632-10.827h-5.832V89.757z"/>
		<path fill="#4D4D4F" d="M257.47,93.572h-1.169c0.032-1.203,0.435-2.19,1.206-2.963c0.771-0.773,1.724-1.158,2.856-1.158
			c1.123,0,2.03,0.361,2.725,1.086c0.693,0.725,1.041,1.579,1.041,2.564c0,0.69-0.166,1.339-0.497,1.944
			c-0.33,0.605-0.973,1.427-1.926,2.46l-3.039,3.271h5.628v1.179h-8.285l4.661-5.037c0.945-1.013,1.56-1.764,1.845-2.254
			c0.284-0.489,0.428-1.005,0.428-1.547c0-0.687-0.256-1.276-0.768-1.772c-0.511-0.495-1.138-0.742-1.878-0.742
			c-0.78,0-1.428,0.259-1.945,0.779C257.836,91.902,257.541,92.632,257.47,93.572z"/>
	</g>
</g>
<g>
	<path fill="#4D4D4F" d="M8.496,91.537l4.858,10.419H12.23l-1.639-3.429H6.103l-1.622,3.429H3.318l4.923-10.419H8.496z
		 M8.364,93.751l-1.785,3.771h3.563L8.364,93.751z"/>
	<path fill="#4D4D4F" d="M22.499,91.274v10.682h-0.978v-1.325c-0.416,0.506-0.882,0.886-1.399,1.141
		c-0.517,0.255-1.083,0.383-1.696,0.383c-1.091,0-2.022-0.396-2.794-1.187c-0.771-0.791-1.158-1.753-1.158-2.886
		c0-1.11,0.39-2.06,1.168-2.848c0.779-0.789,1.717-1.183,2.813-1.183c0.633,0,1.205,0.134,1.718,0.403
		c0.512,0.27,0.962,0.673,1.35,1.212v-4.393H22.499z M18.535,95.008c-0.552,0-1.061,0.135-1.527,0.407
		c-0.467,0.271-0.839,0.651-1.115,1.142c-0.275,0.491-0.413,1.01-0.413,1.557c0,0.543,0.139,1.062,0.417,1.557
		s0.652,0.881,1.122,1.156c0.469,0.276,0.973,0.414,1.511,0.414c0.542,0,1.056-0.137,1.541-0.41
		c0.486-0.273,0.859-0.644,1.122-1.111c0.262-0.467,0.393-0.992,0.393-1.577c0-0.891-0.294-1.637-0.881-2.235
		S19.394,95.008,18.535,95.008z"/>
	<path fill="#4D4D4F" d="M24.015,94.25h1.056l2.586,5.617l2.556-5.617h1.063l-3.527,7.706h-0.184L24.015,94.25z"/>
	<path fill="#4D4D4F" d="M36.431,94.052c1.187,0,2.171,0.43,2.951,1.288c0.71,0.784,1.064,1.713,1.064,2.784
		c0,1.076-0.374,2.018-1.125,2.822c-0.749,0.806-1.713,1.208-2.891,1.208c-1.184,0-2.148-0.402-2.898-1.208
		c-0.75-0.805-1.125-1.746-1.125-2.822c0-1.067,0.354-1.993,1.064-2.776C34.252,94.483,35.238,94.052,36.431,94.052z M36.427,95.021
		c-0.824,0-1.533,0.305-2.125,0.914s-0.889,1.345-0.889,2.21c0,0.557,0.136,1.076,0.405,1.558c0.271,0.481,0.635,0.854,1.095,1.116
		c0.459,0.262,0.964,0.393,1.514,0.393s1.055-0.131,1.514-0.393c0.46-0.263,0.825-0.635,1.096-1.116
		c0.27-0.481,0.405-1.001,0.405-1.558c0-0.865-0.298-1.601-0.893-2.21S37.247,95.021,36.427,95.021z"/>
	<path fill="#4D4D4F" d="M49.761,95.85l-0.786,0.489c-0.679-0.901-1.605-1.353-2.78-1.353c-0.938,0-1.718,0.302-2.338,0.906
		c-0.62,0.604-0.931,1.336-0.931,2.199c0,0.562,0.144,1.09,0.428,1.585c0.286,0.495,0.677,0.88,1.175,1.153s1.056,0.41,1.673,0.41
		c1.132,0,2.058-0.451,2.773-1.353l0.786,0.517c-0.368,0.555-0.863,0.985-1.483,1.291c-0.621,0.306-1.329,0.459-2.121,0.459
		c-1.219,0-2.229-0.388-3.032-1.162c-0.803-0.773-1.204-1.716-1.204-2.826c0-0.745,0.188-1.438,0.563-2.078
		c0.375-0.641,0.891-1.14,1.547-1.499c0.656-0.357,1.391-0.537,2.203-0.537c0.511,0,1.003,0.078,1.477,0.233
		c0.475,0.155,0.877,0.358,1.208,0.608C49.248,95.145,49.529,95.464,49.761,95.85z"/>
	<path fill="#4D4D4F" d="M59.343,94.25v7.706h-0.977v-1.325c-0.416,0.506-0.882,0.886-1.398,1.141
		c-0.518,0.255-1.084,0.383-1.697,0.383c-1.091,0-2.022-0.396-2.794-1.187c-0.771-0.791-1.158-1.753-1.158-2.886
		c0-1.11,0.39-2.06,1.169-2.848c0.779-0.789,1.716-1.183,2.812-1.183c0.633,0,1.205,0.134,1.718,0.403
		c0.512,0.27,0.962,0.673,1.35,1.212V94.25H59.343z M55.38,95.008c-0.551,0-1.061,0.135-1.527,0.407
		c-0.467,0.271-0.838,0.651-1.115,1.142c-0.275,0.491-0.413,1.01-0.413,1.557c0,0.543,0.139,1.062,0.417,1.557
		s0.652,0.881,1.122,1.156c0.469,0.276,0.972,0.414,1.511,0.414c0.541,0,1.056-0.137,1.541-0.41
		c0.486-0.273,0.859-0.644,1.122-1.111c0.262-0.467,0.393-0.992,0.393-1.577c0-0.891-0.294-1.637-0.881-2.235
		S56.238,95.008,55.38,95.008z"/>
	<path fill="#4D4D4F" d="M62.439,91.389h0.991v2.861h1.572v0.856h-1.572v6.85h-0.991v-6.85h-1.354V94.25h1.354V91.389z"/>
	<path fill="#4D4D4F" d="M72.979,99.398l0.836,0.439c-0.274,0.538-0.591,0.973-0.95,1.304c-0.359,0.33-0.764,0.582-1.212,0.754
		c-0.449,0.172-0.958,0.259-1.524,0.259c-1.258,0-2.24-0.412-2.949-1.236c-0.709-0.823-1.063-1.755-1.063-2.794
		c0-0.978,0.3-1.849,0.9-2.613c0.761-0.974,1.779-1.459,3.056-1.459c1.313,0,2.362,0.498,3.147,1.494
		c0.558,0.703,0.841,1.581,0.851,2.635h-6.934c0.019,0.895,0.304,1.629,0.857,2.201c0.553,0.573,1.236,0.858,2.05,0.858
		c0.392,0,0.773-0.067,1.146-0.205c0.371-0.136,0.686-0.316,0.946-0.543C72.396,100.267,72.676,99.902,72.979,99.398z
		 M72.979,97.324c-0.132-0.529-0.325-0.951-0.578-1.269c-0.253-0.315-0.587-0.571-1.004-0.765C70.981,95.097,70.544,95,70.085,95
		c-0.757,0-1.406,0.243-1.95,0.729c-0.397,0.354-0.696,0.886-0.9,1.595H72.979z"/>
	<path fill="#4D4D4F" d="M79.793,95.092l-0.639,0.659c-0.53-0.514-1.048-0.771-1.555-0.771c-0.321,0-0.599,0.106-0.827,0.318
		c-0.229,0.213-0.345,0.461-0.345,0.744c0,0.25,0.095,0.488,0.284,0.715c0.189,0.231,0.587,0.503,1.192,0.814
		c0.737,0.383,1.239,0.751,1.505,1.105c0.26,0.358,0.39,0.763,0.39,1.211c0,0.633-0.222,1.168-0.666,1.607
		c-0.444,0.438-1.001,0.659-1.667,0.659c-0.444,0-0.869-0.097-1.273-0.291c-0.404-0.193-0.739-0.46-1.004-0.8l0.623-0.709
		c0.507,0.572,1.043,0.857,1.612,0.857c0.396,0,0.735-0.128,1.014-0.383c0.279-0.255,0.42-0.554,0.42-0.899
		c0-0.283-0.093-0.535-0.276-0.758c-0.186-0.217-0.602-0.49-1.25-0.821c-0.695-0.359-1.169-0.713-1.419-1.063
		c-0.251-0.35-0.377-0.748-0.377-1.196c0-0.586,0.2-1.072,0.6-1.459c0.399-0.388,0.904-0.581,1.515-0.581
		C78.358,94.052,79.073,94.398,79.793,95.092z"/>
	<path fill="#4D4D4F" d="M93.61,98.103l0.705,0.747c-0.453,0.402-0.883,0.748-1.29,1.04c0.284,0.261,0.653,0.619,1.109,1.074
		c0.358,0.358,0.668,0.689,0.928,0.992H93.61l-1.383-1.425c-0.868,0.699-1.573,1.155-2.116,1.368
		c-0.543,0.212-1.117,0.318-1.722,0.318c-0.802,0-1.447-0.23-1.933-0.69c-0.487-0.461-0.729-1.036-0.729-1.726
		c0-0.52,0.163-1.04,0.491-1.563c0.328-0.521,0.997-1.182,2.007-1.98c-0.571-0.689-0.938-1.197-1.101-1.525
		c-0.162-0.327-0.243-0.641-0.243-0.938c0-0.521,0.2-0.948,0.602-1.289c0.463-0.396,1.039-0.595,1.728-0.595
		c0.436,0,0.831,0.087,1.19,0.262s0.633,0.41,0.822,0.705c0.188,0.296,0.283,0.608,0.283,0.938c0,0.35-0.123,0.721-0.369,1.116
		c-0.245,0.394-0.73,0.897-1.453,1.512l1.579,1.657l1.035,1.05C92.854,98.743,93.291,98.394,93.61,98.103z M88.912,97.046
		c-0.886,0.665-1.464,1.195-1.739,1.591c-0.274,0.394-0.411,0.759-0.411,1.095c0,0.396,0.167,0.747,0.504,1.052
		c0.335,0.305,0.747,0.457,1.234,0.457c0.369,0,0.731-0.075,1.085-0.227c0.559-0.24,1.198-0.649,1.92-1.227l-1.643-1.693
		C89.578,97.796,89.262,97.447,88.912,97.046z M89.039,95.667c0.506-0.393,0.887-0.778,1.143-1.155c0.18-0.27,0.27-0.507,0.27-0.715
		c0-0.242-0.117-0.449-0.352-0.623c-0.234-0.175-0.546-0.263-0.935-0.263c-0.368,0-0.669,0.089-0.901,0.269
		s-0.348,0.393-0.348,0.638c0,0.188,0.047,0.366,0.142,0.531C88.29,94.75,88.617,95.189,89.039,95.667z"/>
	<path fill="#4D4D4F" d="M104.979,91.537l4.858,10.419h-1.124l-1.639-3.429h-4.489l-1.623,3.429h-1.161l4.922-10.419H104.979z
		 M104.847,93.751l-1.785,3.771h3.563L104.847,93.751z"/>
	<path fill="#4D4D4F" d="M112.153,91.389h0.99v2.861h1.573v0.856h-1.573v6.85h-0.99v-6.85H110.8V94.25h1.354V91.389z"/>
	<path fill="#4D4D4F" d="M117.069,91.389h0.99v2.861h1.573v0.856h-1.573v6.85h-0.99v-6.85h-1.354V94.25h1.354V91.389z"/>
	<path fill="#4D4D4F" d="M124.768,94.052c1.187,0,2.171,0.43,2.951,1.288c0.71,0.784,1.064,1.713,1.064,2.784
		c0,1.076-0.374,2.018-1.124,2.822c-0.75,0.806-1.714,1.208-2.892,1.208c-1.183,0-2.148-0.402-2.898-1.208
		c-0.749-0.805-1.124-1.746-1.124-2.822c0-1.067,0.354-1.993,1.063-2.776C122.589,94.483,123.575,94.052,124.768,94.052z
		 M124.765,95.021c-0.824,0-1.533,0.305-2.126,0.914c-0.592,0.609-0.888,1.345-0.888,2.21c0,0.557,0.135,1.076,0.404,1.558
		c0.271,0.481,0.635,0.854,1.095,1.116c0.46,0.262,0.965,0.393,1.515,0.393c0.549,0,1.054-0.131,1.514-0.393
		c0.459-0.263,0.824-0.635,1.095-1.116c0.27-0.481,0.405-1.001,0.405-1.558c0-0.865-0.298-1.601-0.893-2.21
		S125.584,95.021,124.765,95.021z"/>
	<path fill="#4D4D4F" d="M130.242,94.25h1.013v1.126c0.303-0.443,0.621-0.775,0.957-0.995c0.335-0.22,0.685-0.329,1.048-0.329
		c0.273,0,0.566,0.087,0.878,0.262l-0.517,0.836c-0.208-0.09-0.383-0.136-0.524-0.136c-0.33,0-0.648,0.137-0.956,0.408
		c-0.307,0.271-0.541,0.693-0.701,1.265c-0.122,0.439-0.185,1.326-0.185,2.662v2.607h-1.013V94.25z"/>
	<path fill="#4D4D4F" d="M134.98,94.25h0.991v1.381c0.397-0.529,0.836-0.924,1.317-1.187c0.482-0.263,1.006-0.393,1.573-0.393
		c0.576,0,1.088,0.146,1.533,0.438c0.446,0.293,0.775,0.688,0.988,1.183c0.212,0.497,0.318,1.269,0.318,2.316v3.967h-0.991V98.28
		c0-0.889-0.037-1.481-0.11-1.778c-0.115-0.51-0.336-0.894-0.661-1.151c-0.326-0.257-0.751-0.386-1.274-0.386
		c-0.601,0-1.138,0.199-1.612,0.596c-0.476,0.396-0.787,0.887-0.938,1.473c-0.095,0.383-0.143,1.081-0.143,2.097v2.826h-0.991V94.25
		z"/>
	<path fill="#4D4D4F" d="M150.316,99.398l0.835,0.439c-0.274,0.538-0.591,0.973-0.95,1.304c-0.359,0.33-0.763,0.582-1.212,0.754
		s-0.958,0.259-1.524,0.259c-1.257,0-2.24-0.412-2.949-1.236c-0.709-0.823-1.063-1.755-1.063-2.794c0-0.978,0.3-1.849,0.9-2.613
		c0.761-0.974,1.779-1.459,3.056-1.459c1.313,0,2.362,0.498,3.147,1.494c0.558,0.703,0.842,1.581,0.851,2.635h-6.934
		c0.019,0.895,0.305,1.629,0.858,2.201c0.553,0.573,1.236,0.858,2.049,0.858c0.393,0,0.773-0.067,1.146-0.205
		c0.371-0.136,0.687-0.316,0.946-0.543C149.732,100.267,150.014,99.902,150.316,99.398z M150.316,97.324
		c-0.133-0.529-0.325-0.951-0.579-1.269c-0.252-0.315-0.587-0.571-1.004-0.765c-0.415-0.194-0.853-0.291-1.311-0.291
		c-0.757,0-1.407,0.243-1.951,0.729c-0.396,0.354-0.696,0.886-0.9,1.595H150.316z"/>
	<path fill="#4D4D4F" d="M152.427,94.25h1.048l2.648,5.934l2.572-5.934h1.055l-4.597,10.525h-1.048l1.483-3.403L152.427,94.25z"/>
	<path fill="#4D4D4F" d="M164.906,95.092l-0.639,0.659c-0.53-0.514-1.048-0.771-1.555-0.771c-0.321,0-0.598,0.106-0.827,0.318
		c-0.229,0.213-0.344,0.461-0.344,0.744c0,0.25,0.094,0.488,0.283,0.715c0.189,0.231,0.587,0.503,1.192,0.814
		c0.738,0.383,1.24,0.751,1.505,1.105c0.261,0.358,0.391,0.763,0.391,1.211c0,0.633-0.223,1.168-0.667,1.607
		c-0.444,0.438-1,0.659-1.667,0.659c-0.444,0-0.869-0.097-1.273-0.291c-0.404-0.193-0.739-0.46-1.004-0.8l0.623-0.709
		c0.507,0.572,1.044,0.857,1.612,0.857c0.396,0,0.735-0.128,1.015-0.383s0.419-0.554,0.419-0.899c0-0.283-0.092-0.535-0.276-0.758
		c-0.186-0.217-0.602-0.49-1.249-0.821c-0.696-0.359-1.17-0.713-1.42-1.063c-0.251-0.35-0.377-0.748-0.377-1.196
		c0-0.586,0.2-1.072,0.6-1.459c0.399-0.388,0.904-0.581,1.515-0.581C163.473,94.052,164.187,94.398,164.906,95.092z"/>
</g>
<line fill="none" stroke="#4D4D4F" stroke-miterlimit="10" x1="172.618" y1="87.406" x2="172.618" y2="107.406"/>
</svg>
